# xmcd
#
# Track frame offsets: 
#        150
#        34311
#        64096
#        90864
#        129614
#        152364
#        183759
#        202357
#        221405
#        241634
#
# Disc length: 3605 seconds
#
# Revision: 0
# Processed by: cddbd v1.5.2PL0 Copyright (c) Steve Scherf et al.
# Submitted via: ExactAudioCopy v0.95b4
#
DISCID=7e0e130a
DTITLE=Eric Clapton - 1998-10-16 - ECEC - CD1
DYEAR=1998
DGENRE=Blues
TTITLE0=My Father's Eyes
TTITLE1=Pilgrim
TTITLE2=One Chance
TTITLE3=River Of Tears
TTITLE4=Going Down Slow
TTITLE5=She's Gone
TTITLE6=Driftin'
TTITLE7=Tears In Heaven
TTITLE8=Layla
TTITLE9=Change The World
EXTD=
EXTT0=
EXTT1=
EXTT2=
EXTT3=
EXTT4=
EXTT5=
EXTT6=
EXTT7=
EXTT8=
EXTT9=
PLAYORDER=
